<?xml version="1.0" encoding="utf-8"?>
<!-- Generator: Adobe Illustrator 26.5.0, SVG Export Plug-In . SVG Version: 6.00 Build 0)  -->
<svg version="1.1" id="Layer_2_00000012440482655383278500000001591002568061948081_"
	 xmlns="http://www.w3.org/2000/svg" xmlns:xlink="http://www.w3.org/1999/xlink" x="0px" y="0px" viewBox="0 0 160 213.2"
	 style="enable-background:new 0 0 160 213.2;" xml:space="preserve">
<style type="text/css">
	.st0{fill:#FFFCF3;stroke:#000000;stroke-width:5;stroke-miterlimit:10;}
	.st1{fill:#FFD9D7;stroke:#000000;stroke-width:5;stroke-miterlimit:10;}
	.st2{stroke:#000000;stroke-width:5;stroke-miterlimit:10;}
	.st3{fill:#FFFFFF;}
	.st4{fill:#C69C6D;stroke:#000000;stroke-width:4;stroke-miterlimit:10;}
	.st5{fill:none;stroke:#000000;stroke-width:5;stroke-miterlimit:10;}
	.st6{fill:#FFFFFF;stroke:#000000;stroke-miterlimit:10;}
</style>
<g id="Layer_1-2">
	<g>
		<path class="st0" d="M157.5,113.7c0-16.3-7.1-30.9-18.4-41c1.5-4.2,2.8-8.6,3.8-13.3c5.8-28.1-1.8-53.5-16.9-56.6
			S93.9,19.9,88.1,48.1c-0.9,4.5-1.5,8.9-1.8,13.1c-2.2,0.7-4.3,1.5-6.3,2.4c-2-0.9-4.1-1.7-6.3-2.4c-0.3-4.2-0.9-8.6-1.8-13.1
			C66.1,20,49.1-0.3,34,2.8S11.3,31.3,17.1,59.4c1,4.7,2.2,9.1,3.8,13.3C9.6,82.8,2.5,97.4,2.5,113.7c0,10.3,2.8,19.9,7.8,28.2
			c-1.1,4.4-1.8,9.1-1.8,13.8c0,30.4,24.6,55,55,55c5.8,0,11.3-0.9,16.5-2.5c5.2,1.6,10.8,2.5,16.5,2.5c30.4,0,55-24.6,55-55
			c0-4.8-0.6-9.4-1.8-13.8C154.7,133.7,157.5,124,157.5,113.7z"/>
		<path class="st1" d="M41.9,65.3l11.6-3.2c3.1-0.9,6.3-0.7,9.2,0.2c0.3-5.1-0.2-10.8-1.8-16.6C56.3,28.9,45,17.3,35.7,19.9
			c-9.3,2.5-13.2,18.2-8.6,35c1.6,5.9,4,11.1,6.9,15.3C36,67.9,38.7,66.1,41.9,65.3L41.9,65.3z"/>
		<path class="st1" d="M118.1,65.3l-11.6-3.2c-3.1-0.9-6.3-0.7-9.2,0.2c-0.3-5.1,0.2-10.8,1.8-16.6c4.6-16.8,15.8-28.3,25.2-25.8
			c9.3,2.5,13.2,18.2,8.6,35c-1.6,5.9-4,11.1-6.9,15.3C124,67.9,121.3,66.1,118.1,65.3L118.1,65.3z"/>
		<path class="st2" d="M87.1,10.3C78.5,10.2,71.3,24.3,71,41.8c0,0.5,0,0.9,0,1.4C65.3,35,58.1,30.6,53.4,33
			c-5.7,2.9-5.5,14.6,0.4,26.2S69,77.8,74.7,74.9c0.2-0.1,0.4-0.2,0.5-0.3c2.4-1.6,5.4-2.3,8.2-1.3c0.8,0.3,1.7,0.5,2.6,0.5
			c8.6,0.2,15.8-13.9,16.1-31.5S95.7,10.5,87.1,10.3L87.1,10.3z"/>
		<circle class="st2" cx="49.5" cy="112.7" r="8"/>
		<circle class="st2" cx="110.5" cy="112.7" r="8"/>
		<circle class="st3" cx="45.8" cy="110" r="3.2"/>
		<circle class="st3" cx="106.8" cy="110" r="3.2"/>
		<ellipse class="st4" cx="79.5" cy="159.2" rx="27.5" ry="33"/>
		<ellipse class="st2" cx="80.5" cy="145.7" rx="11.3" ry="6"/>
		<path class="st5" d="M89.6,177.6c-4.4,10.3-9.1,0-9.1,0v-27.4l-1,1v26.6c0,0-4.6,10-9.1,0"/>
	</g>
	<g>
		<g>
			<g>
				<path class="st2" d="M27,102.3h46.2v8.9c0,9.4-7.6,17-17,17H40c-9.4,0-17-7.6-17-17v-4.9C23,104.1,24.8,102.3,27,102.3L27,102.3
					z"/>
				<path class="st2" d="M85.8,102.3H132c2.2,0,4,1.8,4,4v4.9c0,9.4-7.6,17-17,17h-16.2c-9.4,0-17-7.6-17-17L85.8,102.3L85.8,102.3
					L85.8,102.3z"/>
			</g>
			<rect x="72.5" y="102.7" class="st2" width="14" height="4"/>
		</g>
		<rect x="22" y="109.2" transform="matrix(0.5895 -0.8078 0.8078 0.5895 -76.1069 72.7352)" class="st6" width="23" height="4"/>
		
			<rect x="24.6" y="111.4" transform="matrix(0.5895 -0.8078 0.8078 0.5895 -75.7247 77.9442)" class="st6" width="28.4" height="4.2"/>
		<g>
			<g>
				<path class="st5" d="M26.9,102.1h46.2v8.9c0,9.4-7.6,17-17,17H39.8c-9.4,0-17-7.6-17-17v-4.9C22.8,103.9,24.6,102.1,26.9,102.1
					L26.9,102.1z"/>
				<path class="st5" d="M85.6,102.1h46.2c2.2,0,4,1.8,4,4v4.9c0,9.4-7.6,17-17,17h-16.2c-9.4,0-17-7.6-17-17L85.6,102.1L85.6,102.1
					L85.6,102.1z"/>
			</g>
			<rect x="72.3" y="102.5" class="st5" width="14" height="4"/>
		</g>
	</g>
</g>
</svg>
